# Blender v2.74 (sub 0) OBJ File: ''
# www.blender.org
mtllib door_right.mtl
o group_0.002_ID24
v 18.835779 13.947395 -30.849449
v 19.212984 13.413948 -30.849449
v 18.835779 13.413948 -30.849449
v 19.212984 13.791152 -30.849449
v 19.967392 14.545560 -30.849449
v 19.590187 14.701803 -30.849449
v 19.967392 14.922764 -30.849449
v 19.590187 14.766521 -30.849449
v 19.323463 15.033244 -30.849449
v 19.212984 15.677172 -30.849449
v 18.835779 15.520929 -30.849449
v 18.835779 16.210619 -30.849449
v 19.212984 16.054377 -30.849449
v 19.967392 16.808784 -30.849449
v 19.323463 16.698303 -30.849449
v 19.590187 16.965027 -30.849449
v 19.967392 17.185987 -30.849449
v 19.590187 17.029745 -30.849449
v 19.323463 17.296467 -30.849449
v 19.212984 17.940395 -30.849449
v 18.835779 17.784153 -30.849449
v 18.835779 18.317600 -30.849449
v 19.212984 18.317600 -30.849449
vt -127.787796 190.931595
vt -130.076797 187.694595
vt -127.787796 187.694595
vt -130.076797 189.983490
vt -134.654694 194.561401
vt -132.365799 195.509598
vt -134.654694 196.850388
vt -132.365799 195.902298
vt -130.747192 197.520798
vt -130.076797 201.428299
vt -127.787796 200.480194
vt -127.787796 204.665390
vt -130.076797 203.717300
vt -134.654694 208.295197
vt -130.747192 207.624802
vt -132.365799 209.243301
vt -134.654694 210.584091
vt -132.365799 209.636017
vt -130.747192 211.254593
vt -130.076797 215.162094
vt -127.787796 214.213898
vt -127.787796 217.451004
vt -130.076797 217.451004
vn 0.000000 0.000000 -1.000000
usemtl Steel
s off
f 1/1/1 2/2/1 3/3/1
f 2/2/1 1/1/1 4/4/1
f 4/4/1 1/1/1 5/5/1
f 5/5/1 1/1/1 6/6/1
f 5/5/1 6/6/1 7/7/1
f 7/7/1 6/6/1 8/8/1
f 7/7/1 8/8/1 9/9/1
f 7/7/1 9/9/1 10/10/1
f 10/10/1 9/9/1 11/11/1
f 10/10/1 11/11/1 12/12/1
f 10/10/1 12/12/1 13/13/1
f 13/13/1 12/12/1 14/14/1
f 14/14/1 12/12/1 15/15/1
f 14/14/1 15/15/1 16/16/1
f 14/14/1 16/16/1 17/17/1
f 17/17/1 16/16/1 18/18/1
f 17/17/1 18/18/1 19/19/1
f 17/17/1 19/19/1 20/20/1
f 20/20/1 19/19/1 21/21/1
f 20/20/1 21/21/1 22/22/1
f 20/20/1 22/22/1 23/23/1
o group_0.001_ID11
v 18.835779 13.413948 -30.849449
v 17.138533 13.413948 -30.660847
v 17.138533 13.413948 -30.849449
v 19.212984 13.413948 -30.660847
v 19.212984 13.413948 -30.849449
v 19.212984 13.413948 -30.849449
v 19.212984 13.791152 -30.660847
v 19.212984 13.413948 -30.660847
v 19.212984 13.791152 -30.849449
v 17.138533 18.317600 -30.849449
v 17.138533 13.413948 -30.660847
v 17.138533 18.317600 -30.660847
v 17.138533 13.413948 -30.849449
v 17.138533 13.413948 -30.849449
v 18.835779 13.947395 -30.849449
v 18.835779 13.413948 -30.849449
v 17.138533 18.317600 -30.849449
v 18.835779 15.520929 -30.849449
v 19.590187 14.701803 -30.849449
v 19.323463 15.033244 -30.849449
v 19.590187 14.766521 -30.849449
v 18.835779 16.210619 -30.849449
v 19.323463 16.698303 -30.849449
v 19.590187 16.965027 -30.849449
v 19.590187 17.029745 -30.849449
v 19.323463 17.296467 -30.849449
v 18.835779 17.784153 -30.849449
v 18.835779 18.317600 -30.849449
v 19.212984 13.791152 -30.849449
v 19.967392 14.545560 -30.660847
v 19.212984 13.791152 -30.660847
v 19.967392 14.545560 -30.849449
v 19.212984 18.317600 -30.660847
v 17.138533 18.317600 -30.849449
v 17.138533 18.317600 -30.660847
v 18.835779 18.317600 -30.849449
v 19.212984 18.317600 -30.849449
v 19.967392 14.545560 -30.849449
v 19.967392 14.922764 -30.660847
v 19.967392 14.545560 -30.660847
v 19.967392 14.922764 -30.849449
v 19.212984 17.940395 -30.849449
v 19.212984 18.317600 -30.660847
v 19.212984 17.940395 -30.660847
v 19.212984 18.317600 -30.849449
v 19.967392 14.922764 -30.849449
v 19.212984 15.677172 -30.660847
v 19.967392 14.922764 -30.660847
v 19.212984 15.677172 -30.849449
v 19.967392 17.185987 -30.849449
v 19.212984 17.940395 -30.660847
v 19.967392 17.185987 -30.660847
v 19.212984 17.940395 -30.849449
v 19.212984 15.677172 -30.849449
v 19.212984 16.054377 -30.660847
v 19.212984 15.677172 -30.660847
v 19.212984 16.054377 -30.849449
v 19.967392 16.808784 -30.849449
v 19.967392 17.185987 -30.660847
v 19.967392 16.808784 -30.660847
v 19.967392 17.185987 -30.849449
vt -2.214344 0.246063
vt 0.000000 -0.000000
vt 0.000000 0.246063
vt -2.706470 -0.000000
vt -2.706470 0.246063
vt 0.246063 0.000000
vt 0.000000 0.492126
vt 0.246063 0.492126
vt -0.246063 6.397638
vt 0.000000 6.397638
vt -0.246063 0.000000
vt -2.214344 0.695971
vt -2.214344 0.000000
vt -2.214344 2.748911
vt -3.198596 1.680223
vt -2.850610 2.112644
vt -3.198596 1.764659
vt -2.214344 3.648727
vt -2.850610 4.284993
vt -3.198596 4.632979
vt -3.198596 4.717415
vt -2.850610 5.065400
vt -2.214344 5.701667
vt -2.214344 6.397638
vt 0.246063 2.261749
vt 0.000000 3.653691
vt 0.000000 2.261749
vt 0.246063 3.653691
vt 2.706470 0.000000
vt 2.214344 0.246063
vt 2.706470 0.246063
vt 0.246063 1.476378
vt 0.000000 1.968504
vt 0.000000 1.476378
vt 0.246063 1.968504
vt 0.246063 5.905512
vt 0.000000 5.905512
vt 0.246063 6.397638
vt 0.246063 -1.217792
vt -0.000000 0.174151
vt -0.000000 -1.217792
vt 0.246063 0.174151
vt 0.246063 0.870122
vt 0.000000 2.262064
vt 0.000000 0.870122
vt 0.246063 2.262064
vt 0.246063 2.952756
vt 0.000000 3.444882
vt 0.000000 2.952756
vt 0.246063 3.444882
vt 0.246063 4.429134
vt 0.000000 4.921260
vt 0.000000 4.429134
vt 0.246063 4.921260
vn 0.000000 -1.000000 0.000000
vn 1.000000 0.000000 0.000000
vn -1.000000 0.000000 0.000000
vn 0.000000 0.000000 -1.000000
vn 0.000100 0.000000 -1.000000
vn 0.707100 -0.707100 0.000000
vn 0.000000 1.000000 0.000000
vn 0.707100 0.707100 0.000000
usemtl Metal_Rough
s off
f 24/24/2 25/25/2 26/26/2
f 25/25/2 24/24/2 27/27/2
f 27/27/2 24/24/2 28/28/2
f 29/29/3 30/30/3 31/25/3
f 30/30/3 29/29/3 32/31/3
f 33/32/4 34/25/4 35/33/4
f 34/25/4 33/32/4 36/34/4
f 37/25/5 38/35/5 39/36/5
f 38/35/5 37/25/5 40/33/5
f 38/35/5 40/33/5 41/37/5
f 38/35/5 41/37/5 42/38/5
f 42/38/6 41/37/6 43/39/6
f 42/38/5 43/39/5 44/40/5
f 41/37/5 40/33/5 45/41/5
f 45/41/5 40/33/5 46/42/5
f 46/42/5 40/33/5 47/43/5
f 47/43/5 40/33/5 48/44/5
f 48/44/5 40/33/5 49/45/5
f 49/45/5 40/33/5 50/46/5
f 50/46/5 40/33/5 51/47/5
f 52/48/7 53/49/7 54/50/7
f 53/49/7 52/48/7 55/51/7
f 56/52/8 57/26/8 58/25/8
f 57/26/8 56/52/8 59/53/8
f 59/53/8 56/52/8 60/54/8
f 61/55/3 62/56/3 63/57/3
f 62/56/3 61/55/3 64/58/3
f 65/59/3 66/33/3 67/60/3
f 66/33/3 65/59/3 68/61/3
f 69/62/9 70/63/9 71/64/9
f 70/63/9 69/62/9 72/65/9
f 73/66/9 74/67/9 75/68/9
f 74/67/9 73/66/9 76/69/9
f 77/70/3 78/71/3 79/72/3
f 78/71/3 77/70/3 80/73/3
f 81/74/3 82/75/3 83/76/3
f 82/75/3 81/74/3 84/77/3
o group_0_ID3
v 19.212984 13.791152 -30.660847
v 17.138533 13.413948 -30.660847
v 19.212984 13.413948 -30.660847
v 17.138533 18.317600 -30.660847
v 19.967392 14.545560 -30.660847
v 19.212984 15.677172 -30.660847
v 19.967392 14.922764 -30.660847
v 19.212984 16.054377 -30.660847
v 19.967392 16.808784 -30.660847
v 19.967392 17.185987 -30.660847
v 19.212984 17.940395 -30.660847
v 19.212984 18.317600 -30.660847
v 19.967392 16.808784 -30.849449
v 19.212984 16.054377 -30.660847
v 19.212984 16.054377 -30.849449
v 19.967392 16.808784 -30.660847
vn 0.000000 0.000000 1.000000
vn 0.707100 -0.707100 0.000000
usemtl material
s off
f 85//10 86//10 87//10
f 86//10 85//10 88//10
f 88//10 85//10 89//10
f 88//10 89//10 90//10
f 90//10 89//10 91//10
f 88//10 90//10 92//10
f 88//10 92//10 93//10
f 88//10 93//10 94//10
f 88//10 94//10 95//10
f 88//10 95//10 96//10
f 97//11 98//11 99//11
f 98//11 97//11 100//11
