# Blender v2.74 (sub 0) OBJ File: ''
# www.blender.org
mtllib door_left.mtl
o group_0.002_ID24
v 19.212984 13.791152 -30.849449
v 19.590189 13.413948 -30.849449
v 19.212984 13.413948 -30.849449
v 19.590189 13.634909 -30.849449
v 19.856911 13.901632 -30.849449
v 19.967392 14.545560 -30.849449
v 20.344595 14.389317 -30.849449
v 20.344595 15.079006 -30.849449
v 19.967392 14.922764 -30.849449
v 19.212984 15.677172 -30.849449
v 19.856911 15.566690 -30.849449
v 19.590189 15.833415 -30.849449
v 19.212984 16.054377 -30.849449
v 19.590189 15.898132 -30.849449
v 20.344595 16.652542 -30.849449
v 19.967392 16.808784 -30.849449
v 20.344595 17.342230 -30.849449
v 19.967392 17.185987 -30.849449
v 19.212984 17.940395 -30.849449
v 19.856911 17.829914 -30.849449
v 19.590189 18.096640 -30.849449
v 19.212984 18.317600 -30.849449
v 19.590189 18.317600 -30.849449
vn 0.000000 0.000000 -1.000000
usemtl material
s off
f 1//1 2//1 3//1
f 2//1 1//1 4//1
f 4//1 1//1 5//1
f 5//1 1//1 6//1
f 5//1 6//1 7//1
f 7//1 6//1 8//1
f 8//1 6//1 9//1
f 8//1 9//1 10//1
f 8//1 10//1 11//1
f 11//1 10//1 12//1
f 12//1 10//1 13//1
f 12//1 13//1 14//1
f 14//1 13//1 15//1
f 15//1 13//1 16//1
f 15//1 16//1 17//1
f 17//1 16//1 18//1
f 17//1 18//1 19//1
f 17//1 19//1 20//1
f 20//1 19//1 21//1
f 21//1 19//1 22//1
f 21//1 22//1 23//1
o group_0.001_ID16
v 21.664639 13.413948 -30.660847
v 19.967392 14.545560 -30.660847
v 19.212984 13.413948 -30.660847
v 21.664639 18.317600 -30.660847
v 19.212984 13.791152 -30.660847
v 19.967392 14.922102 -30.660847
v 19.212984 15.676510 -30.660847
v 19.212984 16.054377 -30.660847
v 19.967392 16.808784 -30.660847
v 19.967392 17.185987 -30.660847
v 19.212984 17.940395 -30.660847
v 19.212984 18.317600 -30.660847
vn 0.000000 0.000000 1.000000
vn 0.000100 0.000000 1.000000
usemtl material
s off
f 24//2 25//2 26//2
f 25//2 24//2 27//2
f 26//2 25//2 28//2
f 25//2 27//2 29//2
f 29//2 27//2 30//2
f 30//2 27//2 31//2
f 31//3 27//3 32//3
f 32//2 27//2 33//2
f 33//2 27//2 34//2
f 34//2 27//2 35//2
o group_0_ID3
v 21.664639 13.413948 -30.849449
v 21.664639 18.317600 -30.660847
v 21.664639 13.413948 -30.660847
v 21.664639 18.317600 -30.849449
v 19.590189 13.413948 -30.849449
v 19.212984 13.413948 -30.660847
v 19.212984 13.413948 -30.849449
v 21.664639 13.413948 -30.660847
v 21.664639 13.413948 -30.849449
v 19.590189 13.634909 -30.849449
v 21.664639 13.413948 -30.849449
v 19.590189 13.413948 -30.849449
v 20.344595 14.389317 -30.849449
v 21.664639 18.317600 -30.849449
v 19.856911 13.901632 -30.849449
v 20.344595 15.079006 -30.849449
v 19.856911 15.566690 -30.849449
v 20.344595 16.652542 -30.849449
v 19.590189 15.833415 -30.849449
v 19.590189 15.898132 -30.849449
v 20.344595 17.342230 -30.849449
v 19.856911 17.829914 -30.849449
v 19.590189 18.096640 -30.849449
v 19.590189 18.317600 -30.849449
v 21.664639 18.317600 -30.660847
v 19.212984 18.317600 -30.849449
v 19.212984 18.317600 -30.660847
v 19.590189 18.317600 -30.849449
v 21.664639 18.317600 -30.849449
v 19.212984 13.791152 -30.849449
v 19.212984 13.413948 -30.660847
v 19.212984 13.791152 -30.660847
v 19.212984 13.413948 -30.849449
v 19.212984 18.317600 -30.849449
v 19.212984 17.940395 -30.660847
v 19.212984 18.317600 -30.660847
v 19.212984 17.940395 -30.849449
v 19.967392 14.545560 -30.849449
v 19.212984 13.791152 -30.660847
v 19.967392 14.545560 -30.660847
v 19.212984 13.791152 -30.849449
v 19.212984 17.940395 -30.849449
v 19.967392 17.185987 -30.660847
v 19.212984 17.940395 -30.660847
v 19.967392 17.185987 -30.849449
v 19.967392 14.922764 -30.849449
v 19.967392 14.545560 -30.660847
v 19.967392 14.922102 -30.660847
v 19.967392 14.545560 -30.849449
v 19.967392 17.185987 -30.849449
v 19.967392 16.808784 -30.660847
v 19.967392 17.185987 -30.660847
v 19.967392 16.808784 -30.849449
v 19.212984 15.677172 -30.849449
v 19.967392 14.922102 -30.660847
v 19.212984 15.676510 -30.660847
v 19.967392 14.922764 -30.849449
v 19.967392 16.808784 -30.660847
v 19.212984 16.054377 -30.849449
v 19.212984 16.054377 -30.660847
v 19.967392 16.808784 -30.849449
v 19.212984 16.054377 -30.849449
v 19.212984 15.676510 -30.660847
v 19.212984 16.054377 -30.660847
v 19.212984 15.677172 -30.849449
vt 0.246063 0.000000
vt 0.000000 6.397638
vt 0.000000 0.000000
vt 0.246063 6.397638
vt -0.492126 0.246063
vt 0.000000 0.246063
vt -3.198596 -0.000000
vt -3.198596 0.246063
vt -0.492126 0.288281
vt -0.492126 0.000000
vt -1.476378 1.272533
vt -3.198596 6.397638
vt -0.840112 0.636266
vt -1.476378 2.172349
vt -0.840112 2.808616
vt -1.476378 4.225289
vt -0.492126 3.156601
vt -0.492126 3.241037
vt -1.476378 5.125105
vt -0.840112 5.761371
vt -0.492126 6.109357
vt -0.492126 6.397638
vt 3.198596 0.000000
vt 0.492126 0.246063
vt 3.198596 0.246063
vt -0.246063 0.492126
vt 0.000000 0.492126
vt -0.246063 0.000000
vt -0.246063 6.397638
vt 0.000000 5.905512
vt -0.246063 5.905512
vt -0.246063 1.739928
vt 0.000000 0.347986
vt -0.000000 1.739928
vt -0.246063 0.347986
vt -0.246063 4.175827
vt 0.000000 2.783885
vt 0.000000 4.175827
vt -0.246063 2.783885
vt -0.246063 1.968504
vt 0.000000 1.476378
vt 0.000000 1.967641
vt -0.246063 1.476378
vt -0.246063 4.921260
vt 0.000000 4.429134
vt 0.000000 4.921260
vt -0.246063 4.429134
vt -0.246062 2.088531
vt -0.003454 0.695371
vt 0.000000 2.087310
vt -0.249515 0.696593
vt 0.000000 3.827842
vt -0.246063 2.435899
vt 0.000000 2.435899
vt -0.246063 3.827842
vt -0.246063 3.444882
vt 0.000000 2.951892
vt 0.000000 3.444882
vt -0.246063 2.952756
vn 1.000000 0.000000 0.000000
vn 0.000000 -1.000000 0.000000
vn 0.000000 0.000000 -1.000000
vn 0.000000 1.000000 0.000000
vn -1.000000 0.000000 0.000000
vn -0.707100 0.707100 0.000000
vn -0.707100 -0.707100 0.000000
vn -0.707100 -0.707100 -0.002500
usemtl Metal_Rough
s off
f 36/1/4 37/2/4 38/3/4
f 37/2/4 36/1/4 39/4/4
f 40/5/5 41/3/5 42/6/5
f 41/3/5 40/5/5 43/7/5
f 43/7/5 40/5/5 44/8/5
f 45/9/6 46/7/6 47/10/6
f 46/7/6 45/9/6 48/11/6
f 46/7/6 48/11/6 49/12/6
f 48/11/6 45/9/6 50/13/6
f 49/12/6 48/11/6 51/14/6
f 49/12/6 51/14/6 52/15/6
f 49/12/6 52/15/6 53/16/6
f 53/16/6 52/15/6 54/17/6
f 53/16/6 54/17/6 55/18/6
f 49/12/6 53/16/6 56/19/6
f 49/12/6 56/19/6 57/20/6
f 49/12/6 57/20/6 58/21/6
f 49/12/6 58/21/6 59/22/6
f 60/23/7 61/6/7 62/3/7
f 61/6/7 60/23/7 63/24/7
f 63/24/7 60/23/7 64/25/7
f 65/26/8 66/3/8 67/27/8
f 66/3/8 65/26/8 68/28/8
f 69/29/8 70/30/8 71/2/8
f 70/30/8 69/29/8 72/31/8
f 73/32/9 74/33/9 75/34/9
f 74/33/9 73/32/9 76/35/9
f 77/36/10 78/37/10 79/38/10
f 78/37/10 77/36/10 80/39/10
f 81/40/8 82/41/8 83/42/8
f 82/41/8 81/40/8 84/43/8
f 85/44/8 86/45/8 87/46/8
f 86/45/8 85/44/8 88/47/8
f 89/48/11 90/49/11 91/50/11
f 90/49/11 89/48/11 92/51/11
f 93/52/9 94/53/9 95/54/9
f 94/53/9 93/52/9 96/55/9
f 97/56/8 98/57/8 99/58/8
f 98/57/8 97/56/8 100/59/8
