# Blender v2.74 (sub 0) OBJ File: ''
# www.blender.org
mtllib sky.mtl
o SketchUp.001_ID15
v -419.999908 419.999908 419.999908
v 419.999908 -419.999908 419.999908
v -419.999908 -419.999908 419.999908
v 419.999908 419.999908 419.999908
vt 1.000000 0.000000
vt 0.000000 -1.000000
vt 1.000000 -1.000000
vt 0.000000 0.000000
vn 0.000000 0.000000 -1.000000
usemtl Sun
s off
f 1/1/1 2/2/1 3/3/1
f 2/2/1 1/1/1 4/4/1
o SketchUp_ID2.002
v 419.999908 419.999908 -419.999908
v -419.999908 -419.999908 -419.999908
v 419.999908 -419.999908 -419.999908
v -419.999908 419.999908 -419.999908
v 419.999908 -419.999908 419.999908
v -419.999908 -419.999908 -419.999908
v -419.999908 -419.999908 419.999908
v 419.999908 -419.999908 -419.999908
v 419.999908 419.999908 -419.999908
v 419.999908 -419.999908 419.999908
v 419.999908 419.999908 419.999908
v 419.999908 -419.999908 -419.999908
v 419.999908 419.999908 -419.999908
v -419.999908 419.999908 419.999908
v -419.999908 419.999908 -419.999908
v 419.999908 419.999908 419.999908
v -419.999908 -419.999908 -419.999908
v -419.999908 419.999908 419.999908
v -419.999908 -419.999908 419.999908
v -419.999908 419.999908 -419.999908
vt -321.000000 -568.000000
vt -322.000000 -569.000000
vt -321.000000 -569.000000
vt -322.000000 -568.000000
vt -320.000000 -569.000000
vt -321.000000 -570.000000
vt -320.000000 -570.000000
vt -320.000000 -568.000000
vt -320.000000 -567.000000
vt -321.000000 -567.000000
vt -318.000000 -569.000000
vt -319.000000 -568.000000
vt -319.000000 -569.000000
vt -318.000000 -568.000000
vn 0.000000 0.000000 1.000000
vn 0.000000 1.000000 0.000000
vn -1.000000 0.000000 0.000000
vn 0.000000 -1.000000 0.000000
vn 1.000000 0.000000 0.000000
usemtl Sky.002
s off
f 5/5/2 6/6/2 7/7/2
f 6/6/2 5/5/2 8/8/2
f 9/9/3 10/10/3 11/11/3
f 10/10/3 9/9/3 12/7/3
f 13/5/4 14/9/4 15/12/4
f 14/9/4 13/5/4 16/7/4
f 17/5/5 18/13/5 19/14/5
f 18/13/5 17/5/5 20/12/5
f 21/15/6 22/16/6 23/17/6
f 22/16/6 21/15/6 24/18/6
