# Blender v2.74 (sub 0) OBJ File: ''
# www.blender.org
mtllib container.mtl
o group_0_ID3.007
v -18.203253 -75.560005 -11.813395
v -7.203247 -75.560005 18.346617
v -18.203249 -75.560005 18.346619
v -7.203252 -75.560005 -11.813396
v -7.203252 -75.560005 -11.813396
v -18.203253 -75.560005 -11.813395
v -7.203247 -75.560005 18.346617
v -18.203249 -75.560005 18.346619
v -7.203251 -63.070004 -11.813396
v -18.203253 -75.560005 -11.813395
v -18.203253 -63.070004 -11.813395
v -7.203252 -75.560005 -11.813396
v -7.203252 -75.560005 -11.813396
v -7.203251 -63.070004 -11.813396
v -18.203253 -75.560005 -11.813395
v -18.203253 -63.070004 -11.813395
v -7.203247 -75.560005 18.346617
v -7.203251 -63.070004 -11.813396
v -7.203246 -63.070004 18.346617
v -7.203252 -75.560005 -11.813396
v -7.203252 -75.560005 -11.813396
v -7.203247 -75.560005 18.346617
v -7.203251 -63.070004 -11.813396
v -7.203246 -63.070004 18.346617
v -7.203247 -75.560005 18.346617
v -18.203247 -63.070004 18.346619
v -18.203249 -75.560005 18.346619
v -7.203246 -63.070004 18.346617
v -7.203246 -63.070004 18.346617
v -7.203247 -75.560005 18.346617
v -18.203247 -63.070004 18.346619
v -18.203249 -75.560005 18.346619
v -18.203253 -75.560005 -11.813395
v -18.203247 -63.070004 18.346619
v -18.203253 -63.070004 -11.813395
v -18.203249 -75.560005 18.346619
v -18.203249 -75.560005 18.346619
v -18.203253 -75.560005 -11.813395
v -18.203247 -63.070004 18.346619
v -18.203253 -63.070004 -11.813395
v -7.203251 -63.070004 -11.813396
v -18.203247 -63.070004 18.346619
v -7.203246 -63.070004 18.346617
v -18.203253 -63.070004 -11.813395
v -18.203253 -63.070004 -11.813395
v -7.203251 -63.070004 -11.813396
v -18.203247 -63.070004 18.346619
v -7.203246 -63.070004 18.346617
vt -67.999619 16.998789
vt -69.997314 17.873119
vt -69.997314 16.998789
vt -67.999619 17.873119
vt -67.271042 16.006060
vt -67.999619 16.006069
vt -67.271042 16.998789
vt -69.995308 16.998310
vt -67.999550 16.006050
vt -69.997269 16.006069
vt -67.997589 16.998289
vt -70.725906 16.998730
vt -70.725845 16.006010
vt -67.999619 15.131769
vt -69.997269 15.131769
vt 150.800003 66.000000
vt 150.800003 0.000000
vt -0.000000 66.000000
vt -0.000000 0.000000
vt 55.000000 74.939995
vt 55.000000 0.000000
vt -0.000000 74.939995
vt -150.800003 74.939995
vt -150.800003 -0.000000
vt -55.000000 0.000000
vt -55.000000 74.939995
vt 150.800003 74.939995
vt -150.800003 66.000000
vn 0.000000 -1.000000 -0.000000
vn -0.000000 0.000000 -1.000000
vn 1.000000 -0.000000 -0.000000
vn 0.000000 -0.000000 1.000000
vn -1.000000 0.000000 0.000000
vn 0.000000 1.000000 0.000000
usemtl Container
s off
f 1/1/1 2/2/1 3/3/1
f 2/2/1 1/1/1 4/4/1
f 9/5/2 10/1/2 11/6/2
f 10/1/2 9/5/2 12/7/2
f 17/8/3 18/9/3 19/10/3
f 18/9/3 17/8/3 20/11/3
f 25/12/4 26/10/4 27/3/4
f 26/10/4 25/12/4 28/13/4
f 33/11/5 34/10/5 35/9/5
f 34/10/5 33/11/5 36/8/5
f 41/14/6 42/10/6 43/15/6
f 42/10/6 41/14/6 44/6/6
usemtl Container_0
f 5/16/6 6/17/6 7/18/6
f 8/19/6 7/18/6 6/17/6
f 13/20/4 14/21/4 15/22/4
f 16/19/4 15/22/4 14/21/4
f 21/23/5 22/22/5 23/24/5
f 24/19/5 23/24/5 22/22/5
f 29/25/2 30/26/2 31/19/2
f 32/22/2 31/19/2 30/26/2
f 37/22/3 38/27/3 39/19/3
f 40/17/3 39/19/3 38/27/3
f 45/24/1 46/28/1 47/19/1
f 48/18/1 47/19/1 46/28/1
